<?xml version="1.0" encoding="UTF-8"?>
<svg xmlns="http://www.w3.org/2000/svg" version="1.1" viewBox="0 0 1728 1296">
  <defs>
    <style>
      .cls-1, .cls-2, .cls-3, .cls-4, .cls-5, .cls-6, .cls-7, .cls-8, .cls-9, .cls-10, .cls-11, .cls-12, .cls-13, .cls-14, .cls-15, .cls-16, .cls-17, .cls-18, .cls-19, .cls-20, .cls-21, .cls-22, .cls-23, .cls-24, .cls-25, .cls-26, .cls-27, .cls-28, .cls-29, .cls-30 {
        stroke-miterlimit: 10;
      }

      .cls-1, .cls-3 {
        stroke-width: 7px;
      }

      .cls-1, .cls-3, .cls-4, .cls-5, .cls-6, .cls-7, .cls-8, .cls-9, .cls-10, .cls-11, .cls-12, .cls-13, .cls-14, .cls-15, .cls-17, .cls-18, .cls-19, .cls-20, .cls-21, .cls-22, .cls-24, .cls-25, .cls-26, .cls-27, .cls-28, .cls-29, .cls-30 {
        stroke: #2e2076;
      }

      .cls-1, .cls-3, .cls-4, .cls-6, .cls-12, .cls-15, .cls-17, .cls-19, .cls-20, .cls-26, .cls-27, .cls-28, .cls-29 {
        fill: #2e2076;
      }

      .cls-2 {
        fill: #0071bc;
      }

      .cls-2, .cls-16, .cls-23 {
        stroke: #000;
      }

      .cls-2, .cls-23 {
        opacity: .2;
      }

      .cls-3, .cls-5, .cls-6, .cls-7, .cls-11, .cls-12, .cls-14, .cls-19, .cls-21, .cls-22, .cls-25, .cls-26, .cls-28 {
        opacity: .6;
      }

      .cls-4, .cls-5, .cls-12, .cls-24 {
        stroke-width: 3px;
      }

      .cls-5, .cls-7, .cls-8, .cls-9, .cls-10, .cls-11, .cls-13, .cls-14, .cls-18, .cls-21, .cls-22, .cls-24, .cls-25, .cls-30 {
        fill: #fff;
      }

      .cls-6, .cls-15 {
        mix-blend-mode: color;
      }

      .cls-8, .cls-14 {
        stroke-width: 8px;
      }

      .cls-9, .cls-20, .cls-22, .cls-27, .cls-28 {
        stroke-width: 2px;
      }

      .cls-11, .cls-30 {
        stroke-width: 6px;
      }

      .cls-13, .cls-25, .cls-26, .cls-29 {
        stroke-width: 9px;
      }

      .cls-16 {
        fill: #004eac;
        opacity: .2;
      }

      .cls-18, .cls-21 {
        stroke-width: 10px;
      }

      .cls-31 {
        opacity: .6;
      }

      .cls-31, .cls-32 {
        fill: #000;
        font-family: SuperiorTitle-Light, 'Superior Title';
        font-size: 221.2px;
        font-weight: 300;
        letter-spacing: 0em;
        mix-blend-mode: saturation;
      }

      .cls-32 {
        opacity: 1;
      }

      .cls-23 {
        fill: #00a99d;
      }

      .cls-33 {
        isolation: isolate;
      }

      .cls-27 {
        display: none;
      }
    </style>
  </defs>
  <g class="cls-33">
    <g id="Layer_1" data-name="Layer 1">
      <ellipse class="cls-27" cx="968.4" cy="536.3" rx="16" ry="15"/>
      <text class="cls-31" transform="translate(224.6 737.7) rotate(-.7)"><tspan x="0" y="0">RONINMEZ</tspan></text>
      <text class="cls-32" transform="translate(232.8 737.7) rotate(-.7)"><tspan x="0" y="0">RONINMEZ</tspan></text>
      <line class="cls-24" x1="494.3" y1="756.3" x2="494.3" y2="807.2"/>
      <line class="cls-24" x1="494.3" y1="790.1" x2="595.8" y2="791.4"/>
      <line class="cls-8" x1="701.3" y1="756.3" x2="646.5" y2="756.3"/>
      <line class="cls-4" x1="969.7" y1="819.8" x2="1069.1" y2="819.8"/>
      <line class="cls-4" x1="974.8" y1="756.3" x2="1019.4" y2="756.3"/>
      <line class="cls-4" x1="1014.4" y1="756.3" x2="1069.1" y2="756.3"/>
      <line class="cls-4" x1="1009.2" y1="661.1" x2="1056.4" y2="661.1"/>
      <line class="cls-4" x1="1056.4" y1="652.7" x2="1056.4" y2="666.4"/>
      <line class="cls-4" x1="1053.7" y1="531.6" x2="1111" y2="531.6"/>
      <line class="cls-4" x1="834.7" y1="476.6" x2="834.7" y2="536.3"/>
      <line class="cls-1" x1="952.4" y1="502.8" x2="833.1" y2="502.8"/>
      <line class="cls-4" x1="1201.5" y1="536.3" x2="1115.2" y2="536.3"/>
      <line class="cls-1" x1="968.4" y1="521.3" x2="968.4" y2="470.4"/>
      <line class="cls-4" x1="1219.5" y1="691" x2="1219.5" y2="741.3"/>
      <line class="cls-4" x1="1203.5" y1="756.3" x2="1133.3" y2="756.3"/>
      <line class="cls-4" x1="1219.5" y1="771.3" x2="1219.5" y2="819.8"/>
      <line class="cls-24" x1="133.2" y1="622.9" x2="133.2" y2="704.6"/>
      <path class="cls-10" d="M701.3,767.2c0,2.3,3.5,6.3,3.5,8.6"/>
      <line class="cls-10" x1="707.7" y1="800.6" x2="707.7" y2="776.8"/>
      <path class="cls-10" d="M705.1,775.2c.8,0,2.6.9,2.6,1.6"/>
      <path class="cls-17" d="M691.1,555.7c-.4-2.5-7.9-5.8-8.3-8.3"/>
      <line class="cls-20" x1="1431.5" y1="611.6" x2="1444.6" y2="607.3"/>
      <line class="cls-20" x1="1438.1" y1="617.3" x2="1444.6" y2="615.4"/>
      <ellipse class="cls-20" cx="1430.5" cy="589.2" rx="16" ry="15"/>
      <ellipse class="cls-20" cx="419.4" cy="536.3" rx="16" ry="15"/>
      <ellipse class="cls-9" cx="133.2" cy="718.7" rx="16" ry="15"/>
      <ellipse class="cls-9" cx="717.3" cy="756.3" rx="16" ry="15"/>
      <ellipse class="cls-20" cx="1219.5" cy="756.3" rx="16" ry="15"/>
      <ellipse class="cls-17" cx="701.5" cy="536.3" rx="18" ry="15.5"/>
      <ellipse class="cls-17" cx="1219.5" cy="536.3" rx="18" ry="15.5"/>
      <ellipse class="cls-17" cx="1414.5" cy="746.3" rx="18" ry="15.5"/>
      <ellipse class="cls-17" cx="968.4" cy="756.3" rx="18" ry="15.5"/>
      <ellipse class="cls-17" cx="419.4" cy="756.3" rx="18" ry="15.5"/>
      <ellipse class="cls-15" cx="305.5" cy="501.8" rx="18" ry="15.5"/>
      <line class="cls-4" x1="435.4" y1="536.3" x2="577.5" y2="536.3"/>
      <line class="cls-4" x1="506.4" y1="536.3" x2="506.4" y2="416.8"/>
      <line class="cls-4" x1="506.4" y1="461.3" x2="595.8" y2="461.3"/>
      <line class="cls-4" x1="701.5" y1="527.1" x2="701.5" y2="475.1"/>
      <line class="cls-4" x1="701.3" y1="501.8" x2="551.1" y2="501.8"/>
      <line class="cls-4" x1="701.5" y1="476.6" x2="864" y2="476.6"/>
      <line class="cls-29" x1="767" y1="428.4" x2="767" y2="476.6"/>
      <line class="cls-24" x1="437.4" y1="756.3" x2="551.1" y2="756.3"/>
      <line class="cls-18" x1="733.3" y1="756.3" x2="824.3" y2="756.3"/>
      <line class="cls-13" x1="717.3" y1="771.3" x2="717.3" y2="821.3"/>
      <line class="cls-24" x1="968.4" y1="821.3" x2="969.7" y2="730.8"/>
      <line class="cls-24" x1="968.4" y1="790.1" x2="782.8" y2="790.1"/>
      <line class="cls-4" x1="1033.7" y1="756.3" x2="1033.5" y2="661.1"/>
      <line class="cls-24" x1="1009.2" y1="652.7" x2="1009.2" y2="666.4"/>
      <line class="cls-4" x1="1111" y1="536.7" x2="1111" y2="471.9"/>
      <line class="cls-4" x1="1041.7" y1="509" x2="1115.2" y2="509"/>
      <line class="cls-4" x1="1089.9" y1="488.7" x2="1089.9" y2="520.8"/>
      <line class="cls-4" x1="1180.4" y1="511.9" x2="1180.4" y2="567.7"/>
      <line class="cls-4" x1="1219.5" y1="527" x2="1219.5" y2="470.4"/>
      <line class="cls-4" x1="1235.5" y1="756.3" x2="1287.9" y2="756.3"/>
      <line class="cls-4" x1="1152.3" y1="737.6" x2="1152.3" y2="771.8"/>
      <line class="cls-4" x1="1185.1" y1="740.8" x2="1185.1" y2="771.3"/>
      <line class="cls-4" x1="1078.5" y1="790.1" x2="1180.4" y2="790.1"/>
      <line class="cls-4" x1="1168.4" y1="756.3" x2="1168.4" y2="790.1"/>
      <line class="cls-24" x1="132.8" y1="623.9" x2="239" y2="502.8"/>
      <line class="cls-24" x1="300.4" y1="500.8" x2="238" y2="502.8"/>
      <line class="cls-9" x1="149.2" y1="633.6" x2="221.3" y2="633.3"/>
      <line class="cls-9" x1="194.3" y1="633.1" x2="194.3" y2="683.1"/>
      <line class="cls-9" x1="193.8" y1="682.5" x2="212.5" y2="698.4"/>
      <line class="cls-9" x1="165.9" y1="633.6" x2="165.4" y2="662.6"/>
      <line class="cls-30" x1="164.5" y1="662.6" x2="221.3" y2="662.6"/>
      <line class="cls-10" x1="740.5" y1="767.7" x2="811.3" y2="767.7"/>
      <line class="cls-10" x1="650.1" y1="767.7" x2="701.3" y2="767.7"/>
      <line class="cls-17" x1="716.6" y1="553.9" x2="690.6" y2="555.2"/>
      <line class="cls-20" x1="1397.2" y1="746.3" x2="1351.3" y2="746.3"/>
      <line class="cls-20" x1="1429.7" y1="741.8" x2="1481.2" y2="648"/>
      <line class="cls-20" x1="1436.5" y1="604.2" x2="1462.6" y2="681.9"/>
      <line class="cls-20" x1="1462.6" y1="656.6" x2="1481.2" y2="675.3"/>
      <line class="cls-20" x1="1471.9" y1="649.9" x2="1481.2" y2="659.2"/>
      <line class="cls-20" x1="1479.3" y1="647" x2="1482.2" y2="649.9"/>
      <path class="cls-17" d="M716.4,554.4c-.7-3.6,8.1-6.4,7.5-10"/>
      <path class="cls-17" d="M691.1,555.7c-.4-2.5-7.9-5.8-8.3-8.3"/>
      <path class="cls-17" d="M716.4,554.4c-.7-3.6,8.1-6.4,7.5-10"/>
      <line class="cls-5" x1="505.8" y1="768.1" x2="505.8" y2="819.1"/>
      <line class="cls-5" x1="505.8" y1="801.9" x2="607.4" y2="803.2"/>
      <line class="cls-14" x1="712.9" y1="768.1" x2="658" y2="768.1"/>
      <line class="cls-12" x1="981.2" y1="831.6" x2="1080.6" y2="831.6"/>
      <line class="cls-12" x1="986.4" y1="768.1" x2="1030.9" y2="768.1"/>
      <line class="cls-12" x1="1026" y1="768.1" x2="1080.6" y2="768.1"/>
      <line class="cls-12" x1="1020.8" y1="672.9" x2="1067.9" y2="672.9"/>
      <line class="cls-12" x1="1067.9" y1="664.6" x2="1067.9" y2="678.2"/>
      <line class="cls-12" x1="996" y1="548.1" x2="1053.3" y2="548.1"/>
      <line class="cls-12" x1="846.2" y1="488.4" x2="846.2" y2="548.1"/>
      <line class="cls-3" x1="964" y1="548.1" x2="844.7" y2="548.1"/>
      <line class="cls-12" x1="1213.1" y1="548.1" x2="1126.8" y2="548.1"/>
      <line class="cls-3" x1="980" y1="533.1" x2="980" y2="482.3"/>
      <line class="cls-12" x1="1231.1" y1="702.8" x2="1231.1" y2="753.1"/>
      <line class="cls-12" x1="1215.1" y1="768.1" x2="1144.9" y2="768.1"/>
      <line class="cls-12" x1="1231.1" y1="783.1" x2="1231.1" y2="831.6"/>
      <line class="cls-5" x1="144.7" y1="634.8" x2="144.7" y2="716.4"/>
      <path class="cls-7" d="M712.9,779c0,2.3,3.5,6.3,3.5,8.6"/>
      <line class="cls-7" x1="719.3" y1="812.5" x2="719.3" y2="788.6"/>
      <path class="cls-7" d="M716.6,787.1c.8,0,2.6.9,2.6,1.6"/>
      <path class="cls-19" d="M702.6,567.5c-.4-2.5-7.9-5.8-8.3-8.3"/>
      <line class="cls-28" x1="1443.1" y1="623.4" x2="1456.1" y2="619.1"/>
      <line class="cls-28" x1="1449.6" y1="629.1" x2="1456.1" y2="627.3"/>
      <ellipse class="cls-28" cx="1442.1" cy="601" rx="16" ry="15"/>
      <ellipse class="cls-28" cx="431" cy="548.1" rx="16" ry="15"/>
      <ellipse class="cls-22" cx="144.7" cy="730.5" rx="16" ry="15"/>
      <ellipse class="cls-22" cx="728.9" cy="768.1" rx="16" ry="15"/>
      <ellipse class="cls-28" cx="1231.1" cy="768.1" rx="16" ry="15"/>
      <ellipse class="cls-19" cx="713.1" cy="548.1" rx="18" ry="15.5"/>
      <ellipse class="cls-19" cx="1231.1" cy="548.1" rx="18" ry="15.5"/>
      <ellipse class="cls-19" cx="1426.1" cy="758.1" rx="18" ry="15.5"/>
      <ellipse class="cls-19" cx="980" cy="768.1" rx="18" ry="15.5"/>
      <ellipse class="cls-19" cx="431" cy="768.1" rx="18" ry="15.5"/>
      <ellipse class="cls-6" cx="317.1" cy="513.6" rx="18" ry="15.5"/>
      <line class="cls-12" x1="447" y1="548.1" x2="589" y2="548.1"/>
      <line class="cls-12" x1="518" y1="548.1" x2="518" y2="428.7"/>
      <line class="cls-12" x1="518" y1="473.1" x2="607.4" y2="473.1"/>
      <line class="cls-12" x1="713.1" y1="538.9" x2="713.1" y2="486.9"/>
      <line class="cls-12" x1="712.9" y1="513.6" x2="562.7" y2="513.6"/>
      <line class="cls-12" x1="713.1" y1="488.4" x2="875.6" y2="488.4"/>
      <line class="cls-26" x1="778.6" y1="440.2" x2="778.6" y2="488.4"/>
      <line class="cls-5" x1="449" y1="768.1" x2="562.7" y2="768.1"/>
      <line class="cls-21" x1="744.9" y1="768.1" x2="835.9" y2="768.1"/>
      <line class="cls-25" x1="728.9" y1="783.1" x2="728.9" y2="833.1"/>
      <line class="cls-5" x1="980" y1="833.1" x2="981.2" y2="742.6"/>
      <line class="cls-5" x1="980" y1="801.9" x2="794.3" y2="801.9"/>
      <line class="cls-12" x1="1045.3" y1="768.1" x2="1045" y2="672.9"/>
      <line class="cls-5" x1="1020.8" y1="664.6" x2="1020.8" y2="678.2"/>
      <line class="cls-12" x1="1053.3" y1="553.2" x2="1053.3" y2="488.4"/>
      <line class="cls-12" x1="1053.3" y1="520.8" x2="1126.8" y2="520.8"/>
      <line class="cls-12" x1="1101.5" y1="500.6" x2="1101.5" y2="532.6"/>
      <line class="cls-12" x1="1191.9" y1="523.7" x2="1191.9" y2="579.5"/>
      <line class="cls-12" x1="1231.1" y1="538.8" x2="1231.1" y2="482.3"/>
      <line class="cls-12" x1="1247.1" y1="768.1" x2="1299.4" y2="768.1"/>
      <line class="cls-12" x1="1163.9" y1="749.5" x2="1163.9" y2="783.6"/>
      <line class="cls-12" x1="1196.7" y1="752.6" x2="1196.7" y2="783.1"/>
      <line class="cls-12" x1="1090" y1="801.9" x2="1191.9" y2="801.9"/>
      <line class="cls-12" x1="1180" y1="768.1" x2="1180" y2="801.9"/>
      <line class="cls-5" x1="144.4" y1="635.8" x2="250.6" y2="514.6"/>
      <line class="cls-5" x1="312" y1="512.6" x2="249.6" y2="514.6"/>
      <line class="cls-22" x1="160.7" y1="645.5" x2="232.8" y2="645.2"/>
      <line class="cls-22" x1="205.8" y1="644.9" x2="205.8" y2="694.9"/>
      <line class="cls-22" x1="205.3" y1="694.3" x2="224" y2="710.2"/>
      <line class="cls-22" x1="177.4" y1="645.4" x2="177" y2="674.4"/>
      <line class="cls-11" x1="176" y1="674.4" x2="232.8" y2="674.4"/>
      <line class="cls-7" x1="752.1" y1="779.5" x2="822.8" y2="779.5"/>
      <line class="cls-7" x1="661.6" y1="779.5" x2="712.9" y2="779.5"/>
      <line class="cls-19" x1="728.1" y1="565.7" x2="702.1" y2="567"/>
      <line class="cls-28" x1="1408.8" y1="758.1" x2="1362.9" y2="758.1"/>
      <line class="cls-28" x1="1441.3" y1="753.6" x2="1492.7" y2="659.8"/>
      <line class="cls-28" x1="1448.1" y1="616" x2="1474.1" y2="693.7"/>
      <line class="cls-28" x1="1474.1" y1="668.5" x2="1492.7" y2="687.1"/>
      <line class="cls-28" x1="1483.4" y1="661.8" x2="1492.7" y2="671.1"/>
      <line class="cls-28" x1="1490.9" y1="658.9" x2="1493.8" y2="661.8"/>
      <path class="cls-19" d="M728,566.2c-.7-3.6,8.1-6.4,7.5-10"/>
      <path class="cls-19" d="M702.6,567.5c-.4-2.5-7.9-5.8-8.3-8.3"/>
      <path class="cls-19" d="M728,566.2c-.7-3.6,8.1-6.4,7.5-10"/>
      <path class="cls-16" d="M605,796.3c0-53-36.5-114.4,15.7-114.4s174.3,103.9,121.7,96.6c-94.3-13.1-42.3,96-94.5,96s-42.9-25.2-42.9-78.2Z"/>
      <path class="cls-23" d="M317,594.6c-37.3-37.3-30.4-134.4,9.7-87.9,36.8,42.7,195.3,77.4,138.6,70.2-101.7-13-45.7,95.6-102,95.6s-3-34.7-46.3-77.9Z"/>
      <path class="cls-2" d="M809.3,617.7c-150.5-57.5-89.5-163.7,52.9-63.6,115.2,81,697.6,246,580.6,115-287.4-321.6-220.8,14.8-451.5,45.3-235.2-41.5-7.7-30.1-182-96.7Z"/>
    </g>
  </g>
</svg>